<svg xmlns="http://www.w3.org/2000/svg" xmlns:xlink="http://www.w3.org/1999/xlink" viewBox="0 0 498.15 261.01"><defs><style>.cls-1{fill:none;}.cls-2{isolation:isolate;}.cls-3{clip-path:url(#clip-path);}.cls-4{fill:#b5683e;}.cls-5{fill:#e4a55f;}.cls-13,.cls-6{fill:#ffc885;}.cls-7{fill:#817052;}.cls-8{clip-path:url(#clip-path-2);}.cls-11,.cls-9{fill:#fed835;}.cls-10{fill:#f9a825;}.cls-11,.cls-21,.cls-26,.cls-28,.cls-30{mix-blend-mode:multiply;}.cls-12{fill:#e79d5e;}.cls-13,.cls-30{opacity:0.3;}.cls-14{fill:#fff;}.cls-15{fill:#ad9886;}.cls-16,.cls-26{fill:#1976d3;}.cls-17{fill:#ffc928;}.cls-18{fill:#43363d;}.cls-19{fill:#d6572f;}.cls-20{fill:#faba93;}.cls-21{fill:#fcba93;}.cls-22{fill:#fc8c65;}.cls-23{clip-path:url(#clip-path-3);}.cls-24{fill:#fffb73;}.cls-25{fill:#424242;}.cls-26{opacity:0.5;}.cls-27{fill:#4599dd;}.cls-28{opacity:0.6;}.cls-29,.cls-30{fill:#e0e0e0;}.cls-31{fill:#212121;}.cls-32{fill:#332c36;}.cls-33{fill:#fd4e55;}.cls-34,.cls-35{fill:#666;}.cls-35{opacity:0.2;}</style><clipPath id="clip-path" transform="translate(-9.51 -2.14)"><rect class="cls-1" width="434.17" height="264.67"/></clipPath><clipPath id="clip-path-2" transform="translate(-9.51 -2.14)"><polygon class="cls-1" points="113.44 147.34 110 147.34 93.2 147.34 89.77 147.34 79.46 175.97 93.2 175.97 110 175.97 123.75 175.97 113.44 147.34"/></clipPath><clipPath id="clip-path-3" transform="translate(-9.51 -2.14)"><path class="cls-1" d="M287.76,124.38s0,0,0-.06c0-7.42-8.34-13.44-18.63-13.44s-18.64,6-18.64,13.44c0,0,0,0,0,.06h-.06l2.09,41.79h32.38l2.9-41.79Z"/></clipPath></defs><title>how.png</title><g class="cls-2"><g id="Calque_2" data-name="Calque 2"><g id="OBJECTS"><g class="cls-3"><rect class="cls-4" x="121.54" y="101.53" width="76.24" height="154"/><rect class="cls-5" x="137.39" y="101.53" width="64.92" height="154"/><rect class="cls-6" x="165.32" y="101.53" width="9.06" height="154"/><rect class="cls-7" x="90.66" y="169.64" width="2.86" height="61.85"/><g class="cls-8"><polygon class="cls-9" points="103.93 145.2 100.49 145.2 83.69 145.2 80.26 145.2 69.95 173.84 83.69 173.84 100.49 173.84 114.24 173.84 103.93 145.2"/><rect class="cls-10" x="65.37" y="166.58" width="54.59" height="3.05"/></g><path class="cls-11" d="M113.44,147.34h-2.08a18.44,18.44,0,0,1,.17,2.48c0,11.28-9.66,20.43-21.57,20.43A22.49,22.49,0,0,1,82,168.82L79.46,176h44.29Z" transform="translate(-9.51 -2.14)"/><rect class="cls-4" x="78.46" y="211.84" width="51.3" height="43.69"/><rect class="cls-12" x="89.13" y="211.84" width="43.69" height="43.69"/><rect class="cls-6" x="108.29" y="211.89" width="9.14" height="17.07"/><rect class="cls-4" y="190.61" width="76.24" height="64.92"/><rect class="cls-12" x="15.85" y="190.61" width="64.92" height="64.92"/><rect class="cls-6" x="15.85" y="218.54" width="64.92" height="9.06"/><rect class="cls-13" x="0.75" y="218.54" width="64.92" height="9.06"/><rect class="cls-6" x="43.78" y="190.61" width="9.06" height="64.92"/><rect class="cls-14" x="61.9" y="195.14" width="13.59" height="6.79"/><path class="cls-15" d="M312.68,87.55l-7.12-.06.52-3.65c-1.75-.73-2.85-2.23-2.63-3.74a30.3,30.3,0,0,0-3.54-1.58,1.71,1.71,0,0,1-.81-2.28,1.75,1.75,0,0,1,2.28-.81c.92.34,1.82.74,2.7,1.16l.24-1.37a2.59,2.59,0,0,1,.28-.78,31.57,31.57,0,0,0-1.29-4.22c-.74-2.08,2.47-3.25,3.21-1.18.41,1.17.82,2.34,1.14,3.54l.15,0c.31-1.56.65-3.12,1.06-4.66.55-2.12,3.92-1.54,3.36.6-.38,1.47-.71,3-1,4.45l.65.11c.51-1.43,1-2.87,1.54-4.3.73-2.07,3.81-.58,3.08,1.48-.43,1.22-.87,2.44-1.31,3.66l.18.09a21.34,21.34,0,0,0,2.5-2.53c1.35-1.74,3.95.48,2.6,2.22a25.67,25.67,0,0,1-3,3,2.72,2.72,0,0,1,0,.9l-.86,4.8A3.62,3.62,0,0,1,313.19,85Z" transform="translate(-9.51 -2.14)"/><path class="cls-16" d="M256.66,81c-11.51-4.74-8.27-4.11-14.19-2.11,1.27.54,2.89,1.23,5,2.11,5,2.07,11,2.22,16.11,1.71A25.94,25.94,0,0,1,256.66,81Z" transform="translate(-9.51 -2.14)"/><path class="cls-17" d="M288.49,112.71a8.82,8.82,0,0,0,1.88-1.45,32.76,32.76,0,0,0,2.45-2.41,21.7,21.7,0,0,0,3.48-4.72,54.44,54.44,0,0,0,6.59-17.81l13.87.14c-1.59,9.27-4.52,18.47-9.72,26.31a39.13,39.13,0,0,1-29.54,17.69c-3.72.37-6.91-3.27-7-6.77-.05-4,3-6.58,6.77-7a33.41,33.41,0,0,0,5.8-1.29,9.64,9.64,0,0,0,2.36-1A27.63,27.63,0,0,0,288.49,112.71Z" transform="translate(-9.51 -2.14)"/><path class="cls-17" d="M256.43,130.35a7.54,7.54,0,0,0-1.09,1.75,27.62,27.62,0,0,0-1.27,2.7c-1.92,4.57-1.77,21.41-11.86,12.95-3.43-2.87-1.84-7.94-.93-11.83A34,34,0,0,1,260,112.54c2.92-1.43,6.62.57,7.72,3.41,1.25,3.23-.49,6.3-3.41,7.73a27.32,27.32,0,0,0-4.34,2.81,8.35,8.35,0,0,0-1.63,1.51A24.36,24.36,0,0,0,256.43,130.35Z" transform="translate(-9.51 -2.14)"/><path class="cls-18" d="M254.57,251.66a20.83,20.83,0,0,1-7.45,3.48c-2.2.42-5.39.27-7,2.08-3.05,3.35,13.61,4.57,16.81.32l.07,3.11,4.94-.1s3.14-7.16-.2-9Z" transform="translate(-9.51 -2.14)"/><path class="cls-18" d="M281.27,251.66a20.75,20.75,0,0,0,7.45,3.48c2.2.42,5.39.27,7,2.08,3.05,3.35-13.61,4.57-16.82.32l-.06,3.11-4.94-.1s-3.14-7.16.19-9Z" transform="translate(-9.51 -2.14)"/><path class="cls-16" d="M259.58,147.11c3.15,0,5.85,2.6,7.09,6.33a12.76,12.76,0,0,1,2.73-.3c.38,0,.76,0,1.14.05,1.3-3.61,4-6.09,7.08-6.08,4.18,0,7.57,4.58,7.79,10.33h0l0,.27c0,.13,0,.27,0,.4a17.2,17.2,0,0,1-.17,2.19l-4,92.8a6.05,6.05,0,0,1-8.71.22L271,175a13.66,13.66,0,0,1-1.58.11,12.69,12.69,0,0,1-2.92-.35l-3.8,77.87c-3.95,3.44-8.71.22-8.71.22l-1.45-91.54c.17-10.26.16-8.31.17-10.26C252.71,145,255.23,147.09,259.58,147.11Z" transform="translate(-9.51 -2.14)"/><path class="cls-16" d="M287.76,124.38s0,0,0-.06c0-7.42-8.34-13.44-18.63-13.44s-18.64,6-18.64,13.44c0,0,0,0,0,.06h-.06l2.09,41.79h32.38l2.9-41.79Z" transform="translate(-9.51 -2.14)"/><path class="cls-19" d="M255.33,85.56c-.63-4.6-2.84-12.31.88-16.08a1.22,1.22,0,0,1,1.72,0c3.6,3.74.93,11,.94,15.6,0,2-3.25,2.54-3.54.48Z" transform="translate(-9.51 -2.14)"/><rect class="cls-20" x="255.63" y="97.89" width="7.68" height="13.24"/><path class="cls-21" d="M265.14,104.33a5.81,5.81,0,0,0,7.68,0V100h-7.68Z" transform="translate(-9.51 -2.14)"/><path class="cls-20" d="M281.93,75.46c-.52-5.77-9.16-8.28-13.62-8.24-4.93,0-11.74,2.3-12.28,8.24a101.69,101.69,0,0,0-.47,10.76c.05,3.24-.2,6.94.83,10,3.12,9.48,21.5,9.24,25.07.29,1.18-3,.85-6.67.93-9.8A94.82,94.82,0,0,0,281.93,75.46Z" transform="translate(-9.51 -2.14)"/><path class="cls-20" d="M281.31,91A3.21,3.21,0,0,0,284,92.83a3.09,3.09,0,0,0,2.44-1.11c1.27-1.63,1.71-4.18.24-5.86a2.79,2.79,0,0,0-2.72-.92l-.23.08A2.4,2.4,0,0,0,282,86c.37-.49.35-.47-.06.07a5.38,5.38,0,0,0-.24.55l.13-.34c0,.06-.08.2-.13.28a12.9,12.9,0,0,0-.56,1.19A3.73,3.73,0,0,0,281.31,91Z" transform="translate(-9.51 -2.14)"/><path class="cls-22" d="M264.73,84.76c2,1.86,3.28,6.43.52,8.24a1,1,0,0,1-1.3-.28c-.39-.66.14-1.29.43-1.86a5.32,5.32,0,0,0-.64-5.12.7.7,0,0,1,1-1Z" transform="translate(-9.51 -2.14)"/><path class="cls-19" d="M280.07,85.56c-.63-4.6-2.83-12.31.88-16.08a1.22,1.22,0,0,1,1.72,0c3.6,3.74.93,11,.94,15.6,0,2-3.25,2.54-3.54.48Z" transform="translate(-9.51 -2.14)"/><path class="cls-19" d="M260.25,63.8c-.56-.82-.16-.65,0,0Z" transform="translate(-9.51 -2.14)"/><path class="cls-14" d="M264.3,95.17l9.31-1.93S269.73,102.16,264.3,95.17Z" transform="translate(-9.51 -2.14)"/><g class="cls-23"><rect class="cls-17" x="246.82" y="102.86" width="24.67" height="44"/></g><polygon class="cls-24" points="257.67 105.25 251.69 107.03 250.8 117.98 259.08 109.7 267.36 117.98 266.47 107.03 260.77 105.25 257.67 105.25"/><rect class="cls-18" x="242.33" y="158.78" width="34.17" height="4.5"/><rect class="cls-16" x="268.23" y="156.28" width="2.75" height="10.5"/><rect class="cls-16" x="247.85" y="156.28" width="2.75" height="10.5"/><polygon class="cls-25" points="228.65 156.68 221.8 127.18 245.24 127.18 251.37 156.87 228.65 156.68"/><ellipse class="cls-18" cx="250.66" cy="83.78" rx="1.5" ry="2.5"/><ellipse class="cls-18" cx="264.16" cy="83.78" rx="1.5" ry="2.5"/><path class="cls-16" d="M269.5,80.67c-8.19,0-15.17-2-15.17-9.3S261,58.25,269.17,58.25s15.5,6,15.5,13.25v8.81Z" transform="translate(-9.51 -2.14)"/><path class="cls-26" d="M269.17,58.25a16.59,16.59,0,0,0-2.67.22c7,1.13,12.83,6.58,12.83,13v8.81l-12.21.29c.78,0,1.57.07,2.38.07l15.17-.36V71.5C284.67,64.25,277.36,58.25,269.17,58.25Z" transform="translate(-9.51 -2.14)"/><path class="cls-27" d="M284.67,80.32s-16.4,5.47-28,.69-8.2-4.1-14.35-2.05c0,0,8.2-6.83,13.66-6.15S272.37,73.49,284.67,80.32Z" transform="translate(-9.51 -2.14)"/><g class="cls-28"><path class="cls-15" d="M242.83,151.21c2.18.08,2.68-3.3.48-3.38l-4.57-.18-.08-.66c1.51-.16,3-.29,4.55-.36,2.2-.11,1.75-3.5-.44-3.39-1.59.08-3.18.21-4.76.39l-.06-.14c1-.67,2-1.41,3-2.15,1.76-1.33-.33-4-2.09-2.71a11.69,11.69,0,0,1-2.75,1.81,4,4,0,0,0-2,1c-.89,1.18-.33,3,0,4.32.5,2.1,1.39,4,2,6.1.69,2.31,2.43,3.31,4.63,4.13s3.41-2.38,1.34-3.15a20.2,20.2,0,0,1-3.17-1.63c0-.06,0-.12,0-.19Z" transform="translate(-9.51 -2.14)"/></g><path class="cls-15" d="M241.83,150.63c2.18.08,2.68-3.31.48-3.39l-4.57-.17-.08-.66c1.51-.16,3-.29,4.55-.37,2.2-.11,1.75-3.5-.44-3.39-1.59.08-3.18.22-4.76.39l-.06-.14c1-.66,2-1.4,3-2.14,1.76-1.33-.33-4-2.09-2.71a11.69,11.69,0,0,1-2.75,1.81c-.73.28-1.5.37-2,1-.89,1.17-.33,3,0,4.32.5,2.1,1.39,4.05,2,6.1.69,2.3,2.43,3.3,4.63,4.12s3.41-2.37,1.34-3.14a21.08,21.08,0,0,1-3.17-1.63c0-.06,0-.13,0-.19Z" transform="translate(-9.51 -2.14)"/><rect class="cls-29" x="320.38" width="122.09" height="195.88"/><rect class="cls-30" x="370.91" width="71.55" height="195.88"/><rect class="cls-25" x="330.61" y="210.88" width="167.54" height="10.57"/><rect class="cls-25" x="313.61" y="188.31" width="160.54" height="15.38"/><rect class="cls-25" x="313.61" y="198.64" width="160.54" height="15.38"/><rect class="cls-31" x="313.61" y="197.97" width="160.54" height="9.38"/><path class="cls-32" d="M419.17,233a30.12,30.12,0,1,1-30.12-30.12A30.13,30.13,0,0,1,419.17,233Z" transform="translate(-9.51 -2.14)"/><path class="cls-14" d="M408.41,233a19.36,19.36,0,1,1-19.36-19.36A19.36,19.36,0,0,1,408.41,233Z" transform="translate(-9.51 -2.14)"/><path class="cls-32" d="M397.83,233a8.79,8.79,0,1,1-8.78-8.79A8.78,8.78,0,0,1,397.83,233Z" transform="translate(-9.51 -2.14)"/><path class="cls-32" d="M390.78,217.84a1.74,1.74,0,1,1-1.73-1.74A1.72,1.72,0,0,1,390.78,217.84Z" transform="translate(-9.51 -2.14)"/><path class="cls-32" d="M376.76,223.93a1.74,1.74,0,1,1-2.38.63A1.73,1.73,0,0,1,376.76,223.93Z" transform="translate(-9.51 -2.14)"/><path class="cls-32" d="M375,239.12a1.74,1.74,0,1,1-.64,2.37A1.74,1.74,0,0,1,375,239.12Z" transform="translate(-9.51 -2.14)"/><path class="cls-32" d="M387.31,248.22a1.74,1.74,0,1,1,1.74,1.74A1.72,1.72,0,0,1,387.31,248.22Z" transform="translate(-9.51 -2.14)"/><path class="cls-32" d="M401.34,242.13a1.74,1.74,0,1,1,2.37-.64A1.74,1.74,0,0,1,401.34,242.13Z" transform="translate(-9.51 -2.14)"/><path class="cls-32" d="M403.07,226.94a1.74,1.74,0,1,1,.64-2.38A1.74,1.74,0,0,1,403.07,226.94Z" transform="translate(-9.51 -2.14)"/><path class="cls-33" d="M328.58,206.9c0,7-2.86,12.61-6.4,12.61s-6.4-5.65-6.4-12.61,2.86-12.62,6.4-12.62S328.58,199.93,328.58,206.9Z" transform="translate(-9.51 -2.14)"/><rect class="cls-25" x="311.77" y="188.36" width="8.04" height="32.79"/><rect class="cls-25" x="327.15" y="209.53" width="5" height="23.33"/><path class="cls-34" d="M427.67,234.78h-10a28.62,28.62,0,0,0-57.24,0h-10a38.62,38.62,0,0,1,77.24,0Z" transform="translate(-9.51 -2.14)"/><rect class="cls-35" x="329.74" y="12" width="6.72" height="163.88"/><rect class="cls-35" x="343.39" y="12" width="6.72" height="163.88"/><rect class="cls-35" x="357.03" y="12" width="6.72" height="163.88"/><rect class="cls-35" x="370.67" y="12" width="6.72" height="163.88"/><rect class="cls-35" x="384.31" y="12" width="6.72" height="163.88"/><rect class="cls-35" x="397.96" y="12" width="6.72" height="163.88"/><rect class="cls-35" x="411.6" y="12" width="6.72" height="163.88"/><rect class="cls-35" x="425.24" y="12" width="6.72" height="163.88"/></g></g></g></g></svg>