<svg xmlns="http://www.w3.org/2000/svg" viewBox="0 0 750 459.13"><defs><style>.cls-1{isolation:isolate;}.cls-2{fill:#66542f;}.cls-3{fill:#917842;}.cls-4{fill:#ad9566;}.cls-5{fill:#284656;}.cls-6{fill:#aa9468;}.cls-16,.cls-38,.cls-7{fill:#d1d3d4;}.cls-16,.cls-50,.cls-60,.cls-7{mix-blend-mode:multiply;}.cls-8{fill:#fdfeff;}.cls-41,.cls-9{fill:#f7941d;}.cls-10{fill:#e0831e;}.cls-11{font-size:16.21px;font-family:Montserrat-Black, Montserrat Black;font-weight:800;}.cls-11,.cls-25{fill:#414042;}.cls-12,.cls-50,.cls-60{fill:#bcbec0;}.cls-13{fill:#b6c54e;}.cls-14{fill:#52a09e;}.cls-15{fill:#f38480;}.cls-16,.cls-50{opacity:0.2;}.cls-17{fill:#e06c6c;}.cls-18{fill:#ba906c;}.cls-19{fill:#76b2b2;}.cls-20{fill:#8bccca;}.cls-21{fill:#c97565;}.cls-22{fill:#e08e78;}.cls-23{fill:#f3baa9;}.cls-24{fill:#f9cfc5;}.cls-26{fill:#58595b;}.cls-27{fill:#6d6e71;}.cls-28{fill:#d7ab7e;}.cls-29{fill:#a2805a;}.cls-30{fill:#e5cab1;}.cls-31{fill:#c6aa91;}.cls-32{fill:#ffd18d;}.cls-33{fill:#96a435;}.cls-34{fill:#b2422f;}.cls-35{fill:#9b3629;}.cls-36{fill:#939598;}.cls-37{fill:#fff;}.cls-39{fill:#5b4b2b;}.cls-40{fill:#be1e2d;}.cls-40,.cls-41,.cls-62{stroke:#414042;}.cls-40,.cls-41,.cls-55,.cls-62{stroke-miterlimit:10;}.cls-42{fill:#a7a9ac;}.cls-43{fill:#a3714b;}.cls-44{fill:#f9a5a5;}.cls-45{fill:#e6e7e8;}.cls-46{fill:#c6a78b;}.cls-47{fill:#5086b4;}.cls-48{fill:#40639b;}.cls-49{fill:#76b5e5;}.cls-51{fill:#c2c155;}.cls-52{fill:#8c8a33;}.cls-53{fill:#cd5137;}.cls-54{fill:#f1f2f2;}.cls-55,.cls-62{fill:none;}.cls-55{stroke:#d1d3d4;stroke-width:0.5px;}.cls-56{fill:#cd5439;}.cls-57{fill:#f96d5f;}.cls-58{fill:#d2db53;}.cls-59{fill:#cca071;}.cls-60{opacity:0.6;}.cls-61{fill:#ed7321;}</style></defs><title>4351176</title><g class="cls-1"><g id="OBJECTS"><path class="cls-2" d="M750,382.84V500H0V343.42s169-50,373.6,18S680.25,382.84,750,382.84Z" transform="translate(0 -40.87)"/><path class="cls-3" d="M750,382.84v31.77H0V343.42s169-50,373.6,18S680.25,382.84,750,382.84Z" transform="translate(0 -40.87)"/><path class="cls-4" d="M682.14,317.29a152,152,0,0,1-15.63-5.38c-18.38-7.44-46.4-22.67-46.4-46.44,0-35.33,30.7-34,30.7-34s-17.35-9.33-18-24.67,15.33-14.33,15.33-14.33S618,177.78,624,148.18c6.84-24.42,26.17-21.42,26.17-21.42s-19-14.69-11.67-52c4.62-23.55,32.62-37.12,54.32-33.18C705.49,43.84,716,52.17,718.49,68c6.45,41.42-11.76,71.11-12.92,73,1.12-1.24,13.06-14.06,22.45-5.48,13.42,12-13.75,37.71-15.13,39,1-.72,13.57-9.35,20.61.62,7.34,10.36,2.66,37-14,49.72,0,0,20,4.66,22,25.35S735.5,300.89,682.14,317.29Z" transform="translate(0 -40.87)"/><path class="cls-3" d="M682.14,317.29a152,152,0,0,1-15.63-5.38c62.17-50.72,21-97.54,21-97.54S708.15,196,698.87,185.3s-22.39-3.66-22.39-3.66c21-27.67-6.22-41.14-6.22-41.14,44-20.23,24.77-91.26,22.52-99C705.49,43.84,716,52.17,718.49,68c6.45,41.42-11.76,71.11-12.92,73,1.12-1.24,13.06-14.06,22.45-5.48,13.42,12-13.75,37.71-15.13,39,1-.72,13.57-9.35,20.61.62,7.34,10.36,2.66,37-14,49.72,0,0,20,4.66,22,25.35S735.5,300.89,682.14,317.29Z" transform="translate(0 -40.87)"/><path class="cls-5" d="M703.18,191.71,684.1,205.13l-.62-38.49h-3l-1.34,82.58c-5-3.2-18.07-12.69-18.07-12.69l-1.53,2.14L679,258.36l-2.52,155.69h11L684.2,211l19-17.21Z" transform="translate(0 -40.87)"/><path class="cls-6" d="M741.5,414.61a12.36,12.36,0,0,0-14.5-5.46s1.25-11.17-9.25-15-12.25,8.13-12.25,8.13,5-20-13-23-14,25.75-14,25.75-9.29-5.7-15.32,3.3c0,0-11.69-5.58-16,6.31Z" transform="translate(0 -40.87)"/><path class="cls-4" d="M96.93,414.61H0v-58c3.4-2.18,7.83-3.13,13.58-2.17,26.7,4.46,23.65,30.9,22.44,37.59,1.12-4.62,5.69-17.76,20.51-12.3,17.86,6.58,15.74,25.57,15.74,25.57C89.28,400.46,96.93,414.61,96.93,414.61Z" transform="translate(0 -40.87)"/><ellipse class="cls-7" cx="387.45" cy="404.46" rx="337.76" ry="12.25"/><rect class="cls-3" x="391.82" y="121.77" width="199.9" height="283.65" rx="11.62"/><rect class="cls-8" x="405.33" y="132.58" width="172.89" height="255.96"/><path class="cls-9" d="M528.92,159.71v22.07a3.83,3.83,0,0,1-3.82,3.82H458.45a3.82,3.82,0,0,1-3.82-3.82V159.71a3.82,3.82,0,0,1,3.82-3.82H485.7a.5.5,0,0,0,0,.17,6.09,6.09,0,0,0,12.18,0,1,1,0,0,0,0-.17H525.1A3.83,3.83,0,0,1,528.92,159.71Z" transform="translate(0 -40.87)"/><path class="cls-9" d="M491.77,141.37a14.68,14.68,0,0,0-14.69,14.52v.17a14.7,14.7,0,0,0,29.39,0v-.17A14.69,14.69,0,0,0,491.77,141.37Zm0,20.78a6.09,6.09,0,0,1-6.09-6.09.5.5,0,0,1,0-.17,6.08,6.08,0,0,1,12.15,0,1,1,0,0,1,0,.17A6.08,6.08,0,0,1,491.77,162.15Z" transform="translate(0 -40.87)"/><path class="cls-10" d="M528.92,173.45v8.33a3.83,3.83,0,0,1-3.82,3.82H458.45a3.82,3.82,0,0,1-3.82-3.82v-8.33Z" transform="translate(0 -40.87)"/><text class="cls-11" transform="translate(443.37 167.02)">CHECKLIST</text><rect class="cls-12" x="464.32" y="188.94" width="94.3" height="3.32" rx="1"/><rect class="cls-12" x="464.32" y="198.35" width="47.59" height="3.32" rx="1"/><path class="cls-12" d="M445,248.1H428.77a3.84,3.84,0,0,1-3.84-3.84V228.08a3.84,3.84,0,0,1,3.84-3.84H445a3.84,3.84,0,0,1,3.84,3.84v16.18A3.84,3.84,0,0,1,445,248.1Zm-16.18-21.85a1.83,1.83,0,0,0-1.83,1.83v16.18a1.83,1.83,0,0,0,1.83,1.83H445a1.83,1.83,0,0,0,1.83-1.83V228.08a1.83,1.83,0,0,0-1.83-1.83Z" transform="translate(0 -40.87)"/><path class="cls-13" d="M433.8,242.62h-.05a1.27,1.27,0,0,1-.92-.46l-4.12-5a1.26,1.26,0,1,1,1.94-1.61l3.23,3.9,9.26-9.38a1.26,1.26,0,1,1,1.79,1.77L434.7,242.24A1.27,1.27,0,0,1,433.8,242.62Z" transform="translate(0 -40.87)"/><rect class="cls-12" x="464.32" y="220.51" width="94.3" height="3.32" rx="1"/><rect class="cls-12" x="464.32" y="229.91" width="47.59" height="3.32" rx="1"/><path class="cls-12" d="M445,279.67H428.77a3.85,3.85,0,0,1-3.84-3.84V259.65a3.85,3.85,0,0,1,3.84-3.85H445a3.85,3.85,0,0,1,3.84,3.85v16.18A3.85,3.85,0,0,1,445,279.67Zm-16.18-21.86a1.83,1.83,0,0,0-1.83,1.84v16.18a1.83,1.83,0,0,0,1.83,1.83H445a1.83,1.83,0,0,0,1.83-1.83V259.65a1.83,1.83,0,0,0-1.83-1.84Z" transform="translate(0 -40.87)"/><path class="cls-13" d="M433.8,274.18h-.05a1.26,1.26,0,0,1-.92-.45l-4.12-5a1.26,1.26,0,0,1,1.94-1.61l3.23,3.9,9.26-9.38a1.26,1.26,0,0,1,1.79,1.77L434.7,273.81A1.26,1.26,0,0,1,433.8,274.18Z" transform="translate(0 -40.87)"/><rect class="cls-12" x="464.32" y="252.07" width="94.3" height="3.32" rx="1"/><rect class="cls-12" x="464.32" y="261.48" width="47.59" height="3.32" rx="1"/><path class="cls-12" d="M445,311.23H428.77a3.84,3.84,0,0,1-3.84-3.84V291.21a3.84,3.84,0,0,1,3.84-3.84H445a3.84,3.84,0,0,1,3.84,3.84v16.18A3.84,3.84,0,0,1,445,311.23Zm-16.18-21.85a1.83,1.83,0,0,0-1.83,1.83v16.18a1.83,1.83,0,0,0,1.83,1.83H445a1.83,1.83,0,0,0,1.83-1.83V291.21a1.83,1.83,0,0,0-1.83-1.83Z" transform="translate(0 -40.87)"/><rect class="cls-12" x="464.32" y="283.64" width="94.3" height="3.32" rx="1"/><rect class="cls-12" x="464.32" y="293.04" width="47.59" height="3.32" rx="1"/><path class="cls-12" d="M445,342.8H428.77a3.85,3.85,0,0,1-3.84-3.84V322.78a3.85,3.85,0,0,1,3.84-3.85H445a3.85,3.85,0,0,1,3.84,3.85V339A3.85,3.85,0,0,1,445,342.8Zm-16.18-21.86a1.84,1.84,0,0,0-1.83,1.84V339a1.83,1.83,0,0,0,1.83,1.83H445a1.83,1.83,0,0,0,1.83-1.83V322.78a1.84,1.84,0,0,0-1.83-1.84Z" transform="translate(0 -40.87)"/><rect class="cls-12" x="464.32" y="315.2" width="94.3" height="3.32" rx="1"/><rect class="cls-12" x="464.32" y="324.61" width="47.59" height="3.32" rx="1"/><path class="cls-12" d="M445,374.36H428.77a3.84,3.84,0,0,1-3.84-3.84V354.34a3.84,3.84,0,0,1,3.84-3.84H445a3.84,3.84,0,0,1,3.84,3.84v16.18A3.84,3.84,0,0,1,445,374.36Zm-16.18-21.85a1.83,1.83,0,0,0-1.83,1.83v16.18a1.83,1.83,0,0,0,1.83,1.83H445a1.83,1.83,0,0,0,1.83-1.83V354.34a1.83,1.83,0,0,0-1.83-1.83Z" transform="translate(0 -40.87)"/><rect class="cls-12" x="464.32" y="346.77" width="94.3" height="3.32" rx="1"/><rect class="cls-12" x="464.32" y="356.18" width="47.59" height="3.32" rx="1"/><path class="cls-12" d="M445,405.93H428.77a3.84,3.84,0,0,1-3.84-3.84V385.91a3.85,3.85,0,0,1,3.84-3.85H445a3.85,3.85,0,0,1,3.84,3.85v16.18A3.84,3.84,0,0,1,445,405.93Zm-16.18-21.86a1.84,1.84,0,0,0-1.83,1.84v16.18a1.83,1.83,0,0,0,1.83,1.83H445a1.83,1.83,0,0,0,1.83-1.83V385.91a1.84,1.84,0,0,0-1.83-1.84Z" transform="translate(0 -40.87)"/><rect class="cls-14" x="362.72" y="292.05" width="211.77" height="68.14" rx="11.36"/><path class="cls-15" d="M439.36,373.87a33.87,33.87,0,0,1-1.74,6.72c-24.57,9.45-38.42,1.1-42.13.12a1.65,1.65,0,0,1-.34-.12A32.65,32.65,0,0,1,392,361.18v-.24A38.22,38.22,0,0,1,395.09,350a.19.19,0,0,0,.06-.12c.87-.29,1.73-.58,2.6-.81,21.15-7.47,39.87.81,39.87.81A46.15,46.15,0,0,1,439.36,373.87Z" transform="translate(0 -40.87)"/><path class="cls-16" d="M439.36,373.87a33.87,33.87,0,0,1-1.74,6.72c-24.57,9.45-38.42,1.1-42.13.12a1.65,1.65,0,0,1-.34-.12A32.65,32.65,0,0,1,392,361.18v-.24A38.22,38.22,0,0,1,395.09,350a.19.19,0,0,0,.06-.12c.87-.29,1.73-.58,2.6-.81C397.75,349.06,405.59,375.41,439.36,373.87Z" transform="translate(0 -40.87)"/><path class="cls-17" d="M395.49,380.71a1.65,1.65,0,0,1-.34-.12A32.65,32.65,0,0,1,392,361.18v-.24A55.24,55.24,0,0,1,395.09,350a.19.19,0,0,0,.06-.12S400.83,366.16,395.49,380.71Z" transform="translate(0 -40.87)"/><path class="cls-17" d="M437.62,380.59c-6.26-17.91,0-30.72,0-30.72A47.14,47.14,0,0,1,437.62,380.59Z" transform="translate(0 -40.87)"/><path class="cls-15" d="M533.65,373.87a34.75,34.75,0,0,1-1.74,6.72c-24.58,9.45-38.42,1.1-42.13.12a1.63,1.63,0,0,1-.35-.12,32.73,32.73,0,0,1-3.13-19.41v-.24A38.22,38.22,0,0,1,489.37,350a.19.19,0,0,0,.06-.12c.87-.29,1.74-.58,2.61-.81,21.14-7.47,39.87.81,39.87.81A46.26,46.26,0,0,1,533.65,373.87Z" transform="translate(0 -40.87)"/><path class="cls-16" d="M533.65,373.87a34.75,34.75,0,0,1-1.74,6.72c-24.58,9.45-38.42,1.1-42.13.12a1.63,1.63,0,0,1-.35-.12,32.73,32.73,0,0,1-3.13-19.41v-.24A38.22,38.22,0,0,1,489.37,350a.19.19,0,0,0,.06-.12c.87-.29,1.74-.58,2.61-.81C492,349.06,499.87,375.41,533.65,373.87Z" transform="translate(0 -40.87)"/><path class="cls-17" d="M489.78,380.71a1.63,1.63,0,0,1-.35-.12,32.73,32.73,0,0,1-3.13-19.41v-.24A55.24,55.24,0,0,1,489.37,350a.19.19,0,0,0,.06-.12S495.11,366.16,489.78,380.71Z" transform="translate(0 -40.87)"/><path class="cls-17" d="M531.91,380.59c-6.26-17.91,0-30.72,0-30.72A47.22,47.22,0,0,1,531.91,380.59Z" transform="translate(0 -40.87)"/><polygon class="cls-18" points="371.19 405.42 375.15 405.42 390.61 373.32 381.89 373.32 371.19 405.42"/><polygon class="cls-18" points="562.84 405.42 558.88 405.42 543.43 373.32 552.14 373.32 562.84 405.42"/><path class="cls-19" d="M577,364.53h0a12.91,12.91,0,0,0-16,8.64l-7.22,24.09H382.38l-7.21-24.09a12.88,12.88,0,0,0-24.68,7.39l10.3,34.38a12.91,12.91,0,0,0,11.36,9.12,11.06,11.06,0,0,0,1.92.18H563.13a11.24,11.24,0,0,0,5.58-1.49,12.81,12.81,0,0,0,6.63-7.81l10.3-34.38A12.92,12.92,0,0,0,577,364.53Z" transform="translate(0 -40.87)"/><rect class="cls-20" x="373.6" y="340.78" width="188.11" height="26.98" rx="11.36"/><polygon class="cls-18" points="557.01 379.39 554.8 405.42 557.64 405.42 563 379.39 557.01 379.39"/><polygon class="cls-18" points="671.8 379.39 674.01 405.42 671.17 405.42 665.8 379.39 671.8 379.39"/><rect class="cls-21" x="548.16" y="381.54" width="132.15" height="4.1"/><rect class="cls-22" x="540.44" y="311.18" width="147.58" height="70.36"/><rect class="cls-23" x="543.91" y="331.38" width="68.78" height="23.03"/><rect class="cls-24" x="566.06" y="341.32" width="24.49" height="3.16"/><rect class="cls-23" x="543.91" y="314.18" width="68.78" height="15.57"/><path class="cls-24" d="M580.64,362.83a2.34,2.34,0,1,1-2.33-2.33A2.34,2.34,0,0,1,580.64,362.83Z" transform="translate(0 -40.87)"/><rect class="cls-23" x="615.62" y="314.18" width="68.78" height="15.57"/><path class="cls-24" d="M652.34,362.83A2.34,2.34,0,1,1,650,360.5,2.33,2.33,0,0,1,652.34,362.83Z" transform="translate(0 -40.87)"/><rect class="cls-23" x="543.91" y="355.91" width="68.78" height="23.03"/><rect class="cls-24" x="566.06" y="365.85" width="24.49" height="3.16"/><rect class="cls-23" x="615.62" y="331.38" width="68.78" height="23.03"/><rect class="cls-24" x="637.76" y="341.32" width="24.49" height="3.16"/><rect class="cls-23" x="615.62" y="355.91" width="68.78" height="23.03"/><rect class="cls-24" x="637.76" y="365.85" width="24.49" height="3.16"/><polygon class="cls-25" points="553.46 294.26 540.78 311.18 544.9 311.18 562.16 293.92 553.46 294.26"/><polygon class="cls-25" points="651.72 294.26 664.4 311.18 660.28 311.18 643.02 293.92 651.72 294.26"/><rect class="cls-26" x="540.32" y="232.68" width="123.99" height="63.56"/><polygon class="cls-27" points="615.62 232.68 580.99 296.24 544.01 296.24 544.01 295.99 578.51 232.68 615.62 232.68"/><polygon class="cls-27" points="655.77 232.68 621.13 296.24 602.59 296.24 637.23 232.68 655.77 232.68"/><path class="cls-25" d="M535.61,268.83v73H669v-73ZM664.32,337.1h-124V273.54h124Z" transform="translate(0 -40.87)"/><rect class="cls-28" x="526.75" y="261.97" width="76.57" height="143.45"/><rect class="cls-29" x="512.92" y="261.97" width="13.84" height="143.45"/><rect class="cls-30" x="559.27" y="261.97" width="9.34" height="143.45"/><rect class="cls-30" x="526.75" y="328.74" width="76.57" height="7.61"/><rect class="cls-31" x="512.92" y="328.74" width="13.84" height="7.61"/><rect class="cls-28" x="440.89" y="336.69" width="76.57" height="68.73"/><rect class="cls-29" x="427.06" y="336.69" width="13.84" height="68.73"/><rect class="cls-30" x="473.41" y="336.69" width="9.34" height="68.73"/><rect class="cls-30" x="440.89" y="366.21" width="76.57" height="7.61"/><rect class="cls-31" x="427.06" y="366.21" width="13.84" height="7.61"/><rect class="cls-32" x="547.04" y="368.76" width="41.36" height="36.66"/><rect class="cls-28" x="556.18" y="376.3" width="23.08" height="4.12"/><path class="cls-33" d="M570.33,390.27s-12.76-17.12-5.09-35.88a38.3,38.3,0,0,0-2.3-33.84s15.72,12.27,16.14,29.57S566.25,370,573.63,391Z" transform="translate(0 -40.87)"/><path class="cls-13" d="M564.88,391.5s9.79-21.91-3.09-35.74-7-27.69-7-27.69-14.36,20.06-.48,35.37,7.29,31.28,7.29,31.28Z" transform="translate(0 -40.87)"/><path class="cls-13" d="M579,391.81S576.68,373,586.71,360s2.31-26.86-1.39-30.25c0,0,3.49,11-5.36,17.9s-10.07,25.62-3.13,43.6Z" transform="translate(0 -40.87)"/><polygon class="cls-34" points="583.4 347.39 582.91 351.93 581.09 368.76 559.49 368.76 557.64 351.93 557.14 347.39 583.4 347.39"/><polygon class="cls-35" points="583.4 347.39 582.91 351.93 557.64 351.93 557.14 347.39 583.4 347.39"/><polygon class="cls-34" points="585.57 349.62 554.7 349.62 553.77 339.75 586.49 339.75 585.57 349.62"/><rect class="cls-25" x="285" y="397.18" width="30.81" height="49.1" rx="4.44" transform="translate(600.8 802.6) rotate(180)"/><rect class="cls-26" x="308.52" y="397.18" width="1.19" height="49.1" transform="translate(618.22 802.6) rotate(180)"/><rect class="cls-26" x="304.61" y="397.18" width="1.19" height="49.1" transform="translate(610.41 802.6) rotate(180)"/><rect class="cls-26" x="295" y="397.18" width="1.19" height="49.1" transform="translate(591.19 802.6) rotate(180)"/><rect class="cls-26" x="291.1" y="397.18" width="1.19" height="49.1" transform="translate(583.38 802.6) rotate(180)"/><rect class="cls-36" x="280.16" y="399.5" width="31.25" height="31.25" rx="3.52" transform="translate(591.57 789.39) rotate(180)"/><rect class="cls-25" x="105.96" y="356.32" width="30.81" height="49.1" rx="4.44"/><rect class="cls-26" x="112.06" y="356.32" width="1.19" height="49.1"/><rect class="cls-26" x="115.97" y="356.32" width="1.19" height="49.1"/><rect class="cls-26" x="125.58" y="356.32" width="1.19" height="49.1"/><rect class="cls-26" x="129.49" y="356.32" width="1.19" height="49.1"/><rect class="cls-36" x="110.36" y="358.64" width="31.25" height="31.25" rx="3.52"/><rect class="cls-25" x="108.74" y="330.32" width="204.29" height="26"/><rect class="cls-37" x="105.96" y="321.53" width="209.84" height="12.09" rx="1.64"/><rect class="cls-36" x="103.28" y="295.46" width="212.53" height="8.79"/><rect class="cls-37" x="103.28" y="64.99" width="212.53" height="7.23"/><rect class="cls-38" x="103.28" y="72.22" width="212.53" height="7.23"/><rect class="cls-39" x="103.28" y="77.72" width="212.53" height="217.74"/><rect class="cls-27" x="103.94" y="356.32" width="214.03" height="8.39" rx="1.32"/><rect class="cls-27" x="96.93" y="301.51" width="224.61" height="23.44" rx="3.02"/><polygon class="cls-3" points="369.4 280.81 315.81 295.46 315.81 77.72 369.4 92.37 369.4 280.81"/><polygon class="cls-3" points="49.69 280.81 103.28 295.46 103.28 77.72 49.69 92.37 49.69 280.81"/><path class="cls-40" d="M158,383.68v7.51a2.88,2.88,0,0,1-2.89,2.87H116.54a2.88,2.88,0,0,1-2.89-2.87v-7.51a2.88,2.88,0,0,1,2.89-2.88h38.54A2.88,2.88,0,0,1,158,383.68Z" transform="translate(0 -40.87)"/><path class="cls-41" d="M158,383.68v7.51a2.88,2.88,0,0,1-2.89,2.87H143.73V380.8h11.35A2.88,2.88,0,0,1,158,383.68Z" transform="translate(0 -40.87)"/><path class="cls-40" d="M260.43,383.68v7.51a2.88,2.88,0,0,0,2.88,2.87h38.55a2.88,2.88,0,0,0,2.88-2.87v-7.51a2.88,2.88,0,0,0-2.88-2.88H263.31A2.88,2.88,0,0,0,260.43,383.68Z" transform="translate(0 -40.87)"/><path class="cls-41" d="M260.43,383.68v7.51a2.88,2.88,0,0,0,2.88,2.87h11.36V380.8H263.31A2.88,2.88,0,0,0,260.43,383.68Z" transform="translate(0 -40.87)"/><rect class="cls-27" x="182.14" y="333.61" width="55.66" height="16.72"/><rect class="cls-42" x="100.11" y="87.45" width="6.35" height="17.43" rx="1.99"/><rect class="cls-42" x="100.11" y="174.98" width="6.35" height="17.43" rx="1.99"/><rect class="cls-42" x="100.11" y="262.51" width="6.35" height="17.43" rx="1.99"/><rect class="cls-42" x="312.63" y="87.45" width="6.35" height="17.43" rx="1.99"/><rect class="cls-42" x="312.63" y="174.98" width="6.35" height="17.43" rx="1.99"/><rect class="cls-42" x="312.63" y="262.51" width="6.35" height="17.43" rx="1.99"/><path class="cls-19" d="M139.3,107.24h70.62a4.73,4.73,0,0,1,4.73,4.73v54.51a0,0,0,0,1,0,0H134.58a0,0,0,0,1,0,0V112A4.73,4.73,0,0,1,139.3,107.24Z"/><rect class="cls-19" x="134.58" y="166.48" width="80.07" height="128.99"/><rect class="cls-37" x="142.4" y="129.82" width="3.75" height="23.18" rx="1.22"/><rect class="cls-37" x="142.4" y="179.26" width="4.52" height="23.18" rx="1.47"/><rect class="cls-20" x="134.58" y="166.48" width="80.07" height="1.75"/><rect class="cls-18" x="231.04" y="218.57" width="73.02" height="22.54"/><path class="cls-43" d="M229.19,257.59v78.74h76.72V257.59ZM231,334.48V308.23h73v26.25Zm73-48.79v20.69H231V283.83h73Zm0-3.71H231V259.44h73Z" transform="translate(0 -40.87)"/><rect class="cls-18" x="231.04" y="267.36" width="73.02" height="26.25"/><polygon class="cls-18" points="231.04 244.82 231.04 265.51 304.06 265.51 304.06 244.82 304.06 242.97 231.04 242.97 231.04 244.82"/><path class="cls-43" d="M278.33,272.43H256.77a1.71,1.71,0,0,1-1.71-1.72h0a1.71,1.71,0,0,1,1.71-1.72h21.56a1.72,1.72,0,0,1,1.71,1.72h0A1.72,1.72,0,0,1,278.33,272.43Z" transform="translate(0 -40.87)"/><path class="cls-43" d="M278.33,296.82H256.77a1.71,1.71,0,0,1-1.71-1.71h0a1.71,1.71,0,0,1,1.71-1.72h21.56a1.72,1.72,0,0,1,1.71,1.72h0A1.72,1.72,0,0,1,278.33,296.82Z" transform="translate(0 -40.87)"/><path class="cls-43" d="M278.33,322.93H256.77a1.7,1.7,0,0,1-1.71-1.71h0a1.71,1.71,0,0,1,1.71-1.72h21.56a1.72,1.72,0,0,1,1.71,1.72h0A1.71,1.71,0,0,1,278.33,322.93Z" transform="translate(0 -40.87)"/><rect class="cls-26" x="266.62" y="158.36" width="2.63" height="43.46"/><polygon class="cls-15" points="288.11 181.53 248.48 181.53 258.73 148.81 277.85 148.81 288.11 181.53"/><polygon class="cls-44" points="264.89 181.53 253.34 181.53 262.31 148.81 265.29 148.81 264.89 181.53"/><path class="cls-37" d="M284.32,245.68c-1.25,6.37-10.35,9.55-10.35,9.55H262.43s-9.09-3.18-10.34-9.55,9.89-9.54,9.89-9.54h12.45S285.57,239.32,284.32,245.68Z" transform="translate(0 -40.87)"/><path class="cls-45" d="M269.25,255.23h-6.82s-9.09-3.18-10.34-9.55,9.89-9.54,9.89-9.54h3.31S250.7,246.38,269.25,255.23Z" transform="translate(0 -40.87)"/><path class="cls-37" d="M274.54,236.14H261.82a1.18,1.18,0,0,1-1.18-1.18h0a1.18,1.18,0,0,1,1.18-1.18h12.72a1.18,1.18,0,0,1,1.18,1.18h0A1.18,1.18,0,0,1,274.54,236.14Z" transform="translate(0 -40.87)"/><path class="cls-37" d="M276.76,257.59h-17a1.18,1.18,0,0,1-1.18-1.18h0a1.18,1.18,0,0,1,1.18-1.18h17a1.18,1.18,0,0,1,1.18,1.18h0A1.18,1.18,0,0,1,276.76,257.59Z" transform="translate(0 -40.87)"/><rect class="cls-28" x="171.63" y="226.74" width="76.57" height="68.73"/><rect class="cls-29" x="157.79" y="226.74" width="13.84" height="68.73"/><rect class="cls-30" x="204.15" y="226.74" width="9.34" height="68.73"/><rect class="cls-30" x="171.63" y="256.26" width="76.57" height="7.61"/><rect class="cls-46" x="157.79" y="256.26" width="13.84" height="7.61"/><rect class="cls-32" x="114.32" y="252.53" width="38.67" height="42.94"/><rect class="cls-28" x="122.86" y="262.35" width="21.58" height="3.85"/><rect class="cls-32" x="193.97" y="184.33" width="47.84" height="42.41"/><rect class="cls-28" x="204.54" y="193.06" width="26.7" height="4.76"/><polygon class="cls-47" points="174.61 259.68 172.66 271.48 171.44 278.77 169.57 290.05 169.29 291.73 168.67 295.46 149.67 295.46 148.97 291.73 146.68 279.62 145.26 272.03 142.93 259.68 174.61 259.68"/><polygon class="cls-48" points="169.29 291.73 168.67 295.46 149.67 295.46 148.97 291.73 169.29 291.73"/><polygon class="cls-49" points="172.66 271.48 171.44 278.77 168.42 282.92 163.59 276.28 158.76 282.93 153.94 276.28 149.09 282.92 146.68 279.62 145.26 272.03 149.09 277.29 153.94 270.65 158.76 277.27 163.59 270.65 168.42 277.29 172.66 271.48"/><path class="cls-50" d="M169.57,330.92l-.28,1.67-.62,3.74h-19l-.7-3.74-2.29-12.11-1.42-7.58-2.33-12.35h2.33S146.27,323.09,169.57,330.92Z" transform="translate(0 -40.87)"/><path class="cls-51" d="M269.57,314.22s-.27-16.69-17-23.28-10.22,3.63-5.65,3.9,1,6.06,3.37,7.47,5.24-.94,6.12,2.22.47,4.64,4.37,5S261,315.16,269.57,314.22Z" transform="translate(0 -40.87)"/><path class="cls-51" d="M272.73,314s-4.06-1-3.88-4.5,3.48-4.12,1.59-7.48-2.4-5.72.35-8.34,2.75-5.32,2.28-7.81-.07-9.55,6.26-9.42,3.83,7.94,0,11.24-1.55,6.39-.95,8.47-1.43,4.65-2.36,6,2.23,3.77,2.09,7.07S274.48,314,272.73,314Z" transform="translate(0 -40.87)"/><path class="cls-51" d="M278.45,314.82s-1.28-4.84.47-7.06,3.57-1.21,3.5-5.12.81-4.77,2.56-5.92-.67-8.27,4.51-10.83,8.47-2.49,6.72,0-4.14,4.17-3.85,7.2-1,3.83-2.13,4.78.2,3.43-.81,5.38-3.77,2.35-4.24,5.05S284.24,314.28,278.45,314.82Z" transform="translate(0 -40.87)"/><path class="cls-52" d="M270.51,321.48h0a.27.27,0,0,0,.23-.3,38.36,38.36,0,0,0-21.84-29.82.27.27,0,0,0-.19.5,37.83,37.83,0,0,1,21.49,29.39A.27.27,0,0,0,270.51,321.48Z" transform="translate(0 -40.87)"/><path class="cls-52" d="M273,321.48h0a.27.27,0,0,0,.26-.28c-1.24-28.57,4.93-40.52,5-40.63a.27.27,0,1,0-.48-.26c-.06.12-6.29,12.2-5.05,40.92A.27.27,0,0,0,273,321.48Z" transform="translate(0 -40.87)"/><path class="cls-52" d="M274.5,320.86a.29.29,0,0,0,.22-.11c.1-.13,10.64-13.7,12.52-22.54,1.82-8.6,4.77-10.39,4.8-10.4a.27.27,0,0,0,.1-.37.25.25,0,0,0-.36-.1c-.13.07-3.18,1.86-5.07,10.76-1.85,8.72-12.31,22.19-12.42,22.32a.27.27,0,0,0,0,.38A.27.27,0,0,0,274.5,320.86Z" transform="translate(0 -40.87)"/><path class="cls-53" d="M263.43,319.78s.2,1.18.6,3.1c.27,1.25.62,2.82,1.07,4.57.66,2.66,1.54,5.75,2.64,8.84h9.61c1.1-3.09,2-6.18,2.64-8.84.45-1.75.8-3.32,1.07-4.57.4-1.92.6-3.1.6-3.1Z" transform="translate(0 -40.87)"/><path class="cls-34" d="M264,322.88c.27,1.25.62,2.82,1.07,4.57H280c.45-1.75.8-3.32,1.07-4.57Z" transform="translate(0 -40.87)"/><path class="cls-47" d="M214.23,263.28a4.31,4.31,0,0,1-4.32,4.32H165.48V259h44.43A4.31,4.31,0,0,1,214.23,263.28Z" transform="translate(0 -40.87)"/><path class="cls-49" d="M210.17,263.28a4.32,4.32,0,0,1-4.32,4.32H169.54V259h36.31A4.32,4.32,0,0,1,210.17,263.28Z" transform="translate(0 -40.87)"/><path class="cls-47" d="M206,263.28a4.32,4.32,0,0,1-4.31,4.32h-36.2V259h36.2A4.32,4.32,0,0,1,206,263.28Z" transform="translate(0 -40.87)"/><path class="cls-49" d="M192.83,263.28a4.32,4.32,0,0,1-4.32,4.32h-23V259h23A4.32,4.32,0,0,1,192.83,263.28Z" transform="translate(0 -40.87)"/><path class="cls-47" d="M188.83,263.28a4.32,4.32,0,0,1-4.32,4.32h-19V259h19A4.32,4.32,0,0,1,188.83,263.28Z" transform="translate(0 -40.87)"/><path class="cls-54" d="M179.78,259.85h-14.3v7h14.3a3.49,3.49,0,1,0,0-7Z" transform="translate(0 -40.87)"/><line class="cls-55" x1="165.48" y1="220.16" x2="179.66" y2="220.16"/><line class="cls-55" x1="165.48" y1="221.68" x2="179.66" y2="221.68"/><line class="cls-55" x1="165.48" y1="223.2" x2="179.66" y2="223.2"/><line class="cls-55" x1="165.48" y1="224.72" x2="179.66" y2="224.72"/><path class="cls-56" d="M214.23,245.85a4.31,4.31,0,0,1-4.32,4.31H165.48v-8.63h44.43A4.31,4.31,0,0,1,214.23,245.85Z" transform="translate(0 -40.87)"/><path class="cls-57" d="M210.17,245.85a4.32,4.32,0,0,1-4.32,4.31H169.54v-8.63h36.31A4.32,4.32,0,0,1,210.17,245.85Z" transform="translate(0 -40.87)"/><path class="cls-56" d="M206,245.85a4.32,4.32,0,0,1-4.31,4.31h-36.2v-8.63h36.2A4.32,4.32,0,0,1,206,245.85Z" transform="translate(0 -40.87)"/><path class="cls-57" d="M192.83,245.85a4.32,4.32,0,0,1-4.32,4.31h-23v-8.63h23A4.32,4.32,0,0,1,192.83,245.85Z" transform="translate(0 -40.87)"/><path class="cls-56" d="M188.83,245.85a4.32,4.32,0,0,1-4.32,4.31h-19v-8.63h19A4.32,4.32,0,0,1,188.83,245.85Z" transform="translate(0 -40.87)"/><path class="cls-54" d="M179.78,242.41h-14.3v7h14.3a3.49,3.49,0,1,0,0-7Z" transform="translate(0 -40.87)"/><line class="cls-55" x1="165.48" y1="202.72" x2="179.66" y2="202.72"/><line class="cls-55" x1="165.48" y1="204.24" x2="179.66" y2="204.24"/><line class="cls-55" x1="165.48" y1="205.76" x2="179.66" y2="205.76"/><line class="cls-55" x1="165.48" y1="207.28" x2="179.66" y2="207.28"/><path class="cls-13" d="M219.15,254.57a4.31,4.31,0,0,1-4.32,4.31H170.4v-8.63h44.43A4.31,4.31,0,0,1,219.15,254.57Z" transform="translate(0 -40.87)"/><path class="cls-58" d="M215.08,254.57a4.31,4.31,0,0,1-4.31,4.31H174.46v-8.63h36.31A4.31,4.31,0,0,1,215.08,254.57Z" transform="translate(0 -40.87)"/><path class="cls-13" d="M210.91,254.57a4.32,4.32,0,0,1-4.31,4.31H170.4v-8.63h36.2A4.32,4.32,0,0,1,210.91,254.57Z" transform="translate(0 -40.87)"/><path class="cls-58" d="M197.75,254.57a4.32,4.32,0,0,1-4.32,4.31h-23v-8.63h23A4.32,4.32,0,0,1,197.75,254.57Z" transform="translate(0 -40.87)"/><path class="cls-13" d="M193.74,254.57a4.31,4.31,0,0,1-4.31,4.31h-19v-8.63h19A4.31,4.31,0,0,1,193.74,254.57Z" transform="translate(0 -40.87)"/><path class="cls-54" d="M184.7,251.13H170.4v7h14.3a3.49,3.49,0,1,0,0-7Z" transform="translate(0 -40.87)"/><line class="cls-55" x1="170.4" y1="211.44" x2="184.58" y2="211.44"/><line class="cls-55" x1="170.4" y1="212.96" x2="184.58" y2="212.96"/><line class="cls-55" x1="170.4" y1="214.48" x2="184.58" y2="214.48"/><line class="cls-55" x1="170.4" y1="216" x2="184.58" y2="216"/><path class="cls-47" d="M507.88,372.71a4.31,4.31,0,0,1-4.31,4.32H459.14v-8.64h44.43A4.31,4.31,0,0,1,507.88,372.71Z" transform="translate(0 -40.87)"/><path class="cls-49" d="M503.82,372.71A4.32,4.32,0,0,1,499.5,377H463.2v-8.64h36.3A4.32,4.32,0,0,1,503.82,372.71Z" transform="translate(0 -40.87)"/><path class="cls-47" d="M499.65,372.71a4.32,4.32,0,0,1-4.32,4.32H459.14v-8.64h36.19A4.32,4.32,0,0,1,499.65,372.71Z" transform="translate(0 -40.87)"/><path class="cls-49" d="M486.49,372.71a4.32,4.32,0,0,1-4.32,4.32h-23v-8.64h23A4.32,4.32,0,0,1,486.49,372.71Z" transform="translate(0 -40.87)"/><path class="cls-47" d="M482.48,372.71a4.32,4.32,0,0,1-4.32,4.32h-19v-8.64h19A4.32,4.32,0,0,1,482.48,372.71Z" transform="translate(0 -40.87)"/><path class="cls-54" d="M473.44,369.27h-14.3v7h14.3a3.49,3.49,0,0,0,0-7Z" transform="translate(0 -40.87)"/><line class="cls-55" x1="459.14" y1="329.59" x2="473.31" y2="329.59"/><line class="cls-55" x1="459.14" y1="331.11" x2="473.31" y2="331.11"/><line class="cls-55" x1="459.14" y1="332.63" x2="473.31" y2="332.63"/><line class="cls-55" x1="459.14" y1="334.15" x2="473.31" y2="334.15"/><path class="cls-56" d="M507.88,355.27a4.31,4.31,0,0,1-4.31,4.32H459.14V351h44.43A4.31,4.31,0,0,1,507.88,355.27Z" transform="translate(0 -40.87)"/><path class="cls-57" d="M503.82,355.27a4.32,4.32,0,0,1-4.32,4.32H463.2V351h36.3A4.32,4.32,0,0,1,503.82,355.27Z" transform="translate(0 -40.87)"/><path class="cls-56" d="M499.65,355.27a4.32,4.32,0,0,1-4.32,4.32H459.14V351h36.19A4.32,4.32,0,0,1,499.65,355.27Z" transform="translate(0 -40.87)"/><path class="cls-57" d="M486.49,355.27a4.32,4.32,0,0,1-4.32,4.32h-23V351h23A4.32,4.32,0,0,1,486.49,355.27Z" transform="translate(0 -40.87)"/><path class="cls-56" d="M482.48,355.27a4.32,4.32,0,0,1-4.32,4.32h-19V351h19A4.32,4.32,0,0,1,482.48,355.27Z" transform="translate(0 -40.87)"/><path class="cls-54" d="M473.44,351.83h-14.3v7h14.3a3.49,3.49,0,0,0,0-7Z" transform="translate(0 -40.87)"/><line class="cls-55" x1="459.14" y1="312.15" x2="473.31" y2="312.15"/><line class="cls-55" x1="459.14" y1="313.67" x2="473.31" y2="313.67"/><line class="cls-55" x1="459.14" y1="315.19" x2="473.31" y2="315.19"/><line class="cls-55" x1="459.14" y1="316.71" x2="473.31" y2="316.71"/><path class="cls-13" d="M512.8,364a4.31,4.31,0,0,1-4.31,4.32H464.06v-8.64h44.43A4.31,4.31,0,0,1,512.8,364Z" transform="translate(0 -40.87)"/><path class="cls-58" d="M508.74,364a4.32,4.32,0,0,1-4.32,4.32h-36.3v-8.64h36.3A4.32,4.32,0,0,1,508.74,364Z" transform="translate(0 -40.87)"/><path class="cls-13" d="M504.57,364a4.32,4.32,0,0,1-4.32,4.32H464.06v-8.64h36.19A4.32,4.32,0,0,1,504.57,364Z" transform="translate(0 -40.87)"/><path class="cls-58" d="M491.41,364a4.32,4.32,0,0,1-4.32,4.32h-23v-8.64h23A4.32,4.32,0,0,1,491.41,364Z" transform="translate(0 -40.87)"/><path class="cls-13" d="M487.4,364a4.32,4.32,0,0,1-4.32,4.32h-19v-8.64h19A4.32,4.32,0,0,1,487.4,364Z" transform="translate(0 -40.87)"/><path class="cls-54" d="M478.36,360.55h-14.3v7h14.3a3.49,3.49,0,0,0,0-7Z" transform="translate(0 -40.87)"/><line class="cls-55" x1="464.06" y1="320.87" x2="478.23" y2="320.87"/><line class="cls-55" x1="464.06" y1="322.39" x2="478.23" y2="322.39"/><line class="cls-55" x1="464.06" y1="323.91" x2="478.23" y2="323.91"/><line class="cls-55" x1="464.06" y1="325.43" x2="478.23" y2="325.43"/><rect class="cls-59" x="614.06" y="360.14" width="76.57" height="45.12"/><rect class="cls-29" x="596.87" y="360.14" width="17.18" height="45.12"/><rect class="cls-30" x="647.67" y="360.14" width="9.34" height="45.28"/><polygon class="cls-60" points="614.06 360.14 621.44 380.89 690.63 380.89 690.63 360.14 614.06 360.14"/><polygon class="cls-28" points="700.31 376.42 623.74 376.42 614.06 360.14 690.63 360.14 700.31 376.42"/><path class="cls-61" d="M372.68,419.33A20.82,20.82,0,1,1,364.14,408,20.84,20.84,0,0,1,372.68,419.33Z" transform="translate(0 -40.87)"/><path class="cls-62" d="M364.14,408a20.81,20.81,0,0,1-30.57,9.43" transform="translate(0 -40.87)"/><path class="cls-62" d="M372,433.48a20.83,20.83,0,0,0-30.57,9.43" transform="translate(0 -40.87)"/><line class="cls-62" x1="346.65" y1="364.71" x2="358.92" y2="404.49"/><line class="cls-62" x1="332.89" y1="390.74" x2="372.68" y2="378.47"/></g></g></svg>